<?xml version="1.0" encoding="UTF-8"?>
<svg xmlns="http://www.w3.org/2000/svg" xmlns:xlink="http://www.w3.org/1999/xlink" width="25px" height="25px" viewBox="0 0 25 25" version="1.1">
<g id="surface1"><path style=" stroke:none;fill-rule:nonzero;fill:rgb(0%,0%,0%);fill-opacity:1;" d="M 3.125 7.8125 L 21.875 7.8125 C 23.601562 7.8125 25 6.414062 25 4.6875 C 25 2.960938 23.601562 1.5625 21.875 1.5625 L 3.125 1.5625 C 1.398438 1.5625 0 2.960938 0 4.6875 C 0 6.414062 1.398438 7.8125 3.125 7.8125 Z M 3.125 3.125 L 21.875 3.125 C 22.738281 3.125 23.4375 3.824219 23.4375 4.6875 C 23.4375 5.550781 22.738281 6.25 21.875 6.25 L 3.125 6.25 C 2.261719 6.25 1.5625 5.550781 1.5625 4.6875 C 1.5625 3.824219 2.261719 3.125 3.125 3.125 Z M 21.875 17.1875 L 3.125 17.1875 C 1.398438 17.1875 0 18.585938 0 20.3125 C 0 22.039062 1.398438 23.4375 3.125 23.4375 L 21.875 23.4375 C 23.601562 23.4375 25 22.039062 25 20.3125 C 25 18.585938 23.601562 17.1875 21.875 17.1875 Z M 21.875 21.875 L 3.125 21.875 C 2.261719 21.875 1.5625 21.175781 1.5625 20.3125 C 1.5625 19.449219 2.261719 18.75 3.125 18.75 L 21.875 18.75 C 22.738281 18.75 23.4375 19.449219 23.4375 20.3125 C 23.4375 21.175781 22.738281 21.875 21.875 21.875 Z M 21.875 9.375 L 3.125 9.375 C 1.398438 9.375 0 10.773438 0 12.5 C 0 14.226562 1.398438 15.625 3.125 15.625 L 21.875 15.625 C 23.601562 15.625 25 14.226562 25 12.5 C 25 10.773438 23.601562 9.375 21.875 9.375 Z M 21.875 14.0625 L 3.125 14.0625 C 2.261719 14.0625 1.5625 13.363281 1.5625 12.5 C 1.5625 11.636719 2.261719 10.9375 3.125 10.9375 L 21.875 10.9375 C 22.738281 10.9375 23.4375 11.636719 23.4375 12.5 C 23.4375 13.363281 22.738281 14.0625 21.875 14.0625 Z M 21.875 14.0625 "/>
</g></svg>
