<?xml version="1.0" encoding="UTF-8"?>
<svg xmlns="http://www.w3.org/2000/svg" width="48" height="48" viewBox="0 0 48 48" version="1.1"><g id="surface1"><path d="M 24.003906 1.464844 C 15.214844 1.464844 8.066406 8.613281 8.066406 17.398438 C 8.066406 23.253906 11.21875 28.558594 16.328125 31.367188 L 16.328125 35.441406 L 16.324219 35.441406 L 16.324219 38.699219 L 16.320312 38.699219 L 16.320312 43.640625 L 20.921875 43.640625 C 21.019531 45.253906 22.363281 46.535156 24 46.535156 C 25.636719 46.535156 26.976562 45.253906 27.074219 43.640625 L 31.675781 43.640625 L 31.675781 40.382812 L 31.679688 40.382812 L 31.679688 31.367188 C 36.789062 28.558594 39.9375 23.253906 39.9375 17.398438 C 39.9375 8.613281 32.789062 1.464844 24.003906 1.464844 Z M 18.007812 37.125 L 29.996094 37.125 L 29.996094 38.699219 L 18.007812 38.699219 Z M 24 44.851562 C 23.214844 44.851562 22.703125 44.253906 22.613281 43.640625 L 25.382812 43.640625 C 25.292969 44.324219 24.707031 44.851562 24 44.851562 Z M 29.992188 41.957031 L 18 41.957031 L 18 40.382812 L 29.992188 40.382812 Z M 30.457031 30.109375 L 29.996094 30.34375 L 29.996094 35.394531 L 24.839844 35.394531 L 24.839844 22.960938 L 29.832031 17.96875 C 30.164062 17.640625 30.164062 17.105469 29.832031 16.777344 C 29.503906 16.449219 28.972656 16.449219 28.644531 16.777344 L 24 21.421875 L 19.355469 16.777344 C 19.027344 16.449219 18.496094 16.449219 18.167969 16.777344 C 17.835938 17.105469 17.835938 17.640625 18.167969 17.96875 L 23.160156 22.960938 L 23.160156 35.394531 L 18.007812 35.394531 L 18.007812 30.34375 L 17.550781 30.109375 C 12.738281 27.664062 9.75 22.792969 9.75 17.398438 C 9.75 9.539062 16.144531 3.148438 24.003906 3.148438 C 31.863281 3.148438 38.253906 9.539062 38.253906 17.398438 C 38.253906 22.792969 35.265625 27.664062 30.457031 30.109375 Z M 30.457031 30.109375"/><path d="M 28.445312 6.566406 C 27.980469 6.566406 27.601562 6.941406 27.601562 7.40625 C 27.601562 7.871094 27.980469 8.25 28.445312 8.25 C 29.769531 8.25 32.871094 9.839844 32.871094 12.921875 C 32.871094 13.386719 33.246094 13.765625 33.710938 13.765625 C 34.175781 13.765625 34.554688 13.386719 34.554688 12.921875 C 34.554688 8.75 30.578125 6.566406 28.445312 6.566406 Z M 28.445312 6.566406"/><path d="M 5.582031 19.011719 C 5.582031 18.546875 5.207031 18.167969 4.742188 18.167969 L 0.925781 18.167969 C 0.460938 18.167969 0.0820312 18.546875 0.0820312 19.011719 C 0.0820312 19.476562 0.460938 19.851562 0.925781 19.851562 L 4.742188 19.851562 C 5.207031 19.851562 5.582031 19.476562 5.582031 19.011719 Z M 5.582031 19.011719"/><path d="M 5.871094 8.003906 C 6.035156 8.167969 6.25 8.25 6.464844 8.25 C 6.679688 8.25 6.898438 8.167969 7.0625 8.003906 C 7.390625 7.675781 7.390625 7.140625 7.0625 6.8125 L 4.363281 4.113281 C 4.035156 3.785156 3.5 3.785156 3.171875 4.113281 C 2.84375 4.441406 2.84375 4.976562 3.171875 5.304688 Z M 5.871094 8.003906"/><path d="M 5.871094 30.019531 L 3.171875 32.714844 C 2.84375 33.042969 2.84375 33.578125 3.171875 33.90625 C 3.335938 34.070312 3.550781 34.152344 3.769531 34.152344 C 3.984375 34.152344 4.199219 34.070312 4.363281 33.90625 L 7.0625 31.207031 C 7.390625 30.878906 7.390625 30.347656 7.0625 30.019531 C 6.734375 29.6875 6.199219 29.6875 5.871094 30.019531 Z M 5.871094 30.019531"/><path d="M 47.074219 18.167969 L 43.257812 18.167969 C 42.792969 18.167969 42.417969 18.546875 42.417969 19.011719 C 42.417969 19.476562 42.792969 19.851562 43.257812 19.851562 L 47.074219 19.851562 C 47.539062 19.851562 47.917969 19.476562 47.917969 19.011719 C 47.917969 18.546875 47.539062 18.167969 47.074219 18.167969 Z M 47.074219 18.167969"/><path d="M 41.535156 8.25 C 41.75 8.25 41.964844 8.167969 42.128906 8.003906 L 44.828125 5.304688 C 45.15625 4.976562 45.15625 4.441406 44.828125 4.113281 C 44.5 3.785156 43.964844 3.785156 43.636719 4.113281 L 40.9375 6.8125 C 40.609375 7.140625 40.609375 7.675781 40.9375 8.003906 C 41.101562 8.167969 41.320312 8.25 41.535156 8.25 Z M 41.535156 8.25"/><path d="M 42.128906 30.019531 C 41.800781 29.6875 41.265625 29.6875 40.9375 30.019531 C 40.609375 30.347656 40.609375 30.878906 40.9375 31.207031 L 43.636719 33.90625 C 43.800781 34.070312 44.015625 34.152344 44.230469 34.152344 C 44.445312 34.152344 44.664062 34.070312 44.828125 33.90625 C 45.15625 33.578125 45.15625 33.042969 44.828125 32.714844 Z M 42.128906 30.019531"/></g></svg>