<?xml version="1.0" encoding="UTF-8"?>
<svg xmlns="http://www.w3.org/2000/svg" xmlns:xlink="http://www.w3.org/1999/xlink" width="48" height="48" viewBox="0 0 48 48" version="1.1"><g id="surface1"><path style=" stroke:none;fill-rule:nonzero;fill:rgb(0%,0%,0%);fill-opacity:1;" d="M 47.175781 29.328125 C 44.847656 20.714844 38.378906 14.949219 32.726562 16.449219 C 30.574219 17.019531 27.109375 18.464844 24.667969 18.628906 L 24.667969 16.222656 L 24.664062 16.222656 C 24.664062 16.085938 24.667969 15.960938 24.667969 15.816406 C 24.667969 13.351562 22.6875 11.355469 20.242188 11.355469 L 13.804688 11.355469 C 12.25 11.355469 10.988281 10.085938 10.988281 8.519531 C 10.988281 6.949219 12.25 5.679688 13.804688 5.679688 L 23.058594 5.679688 C 23.949219 5.679688 24.667969 4.953125 24.667969 4.054688 L 24.667969 0.808594 C 24.667969 0.363281 24.308594 0 23.863281 0 C 23.421875 0 23.058594 0.363281 23.058594 0.808594 L 23.058594 2.433594 C 23.058594 4.042969 22.992188 4.054688 21.449219 4.054688 L 13.804688 4.054688 C 11.359375 4.054688 9.378906 6.050781 9.378906 8.519531 C 9.378906 10.980469 11.359375 12.980469 13.804688 12.980469 L 20.242188 12.980469 C 21.796875 12.980469 23.058594 14.25 23.058594 15.816406 C 23.058594 15.960938 23.0625 16.085938 23.066406 16.226562 L 23.058594 16.226562 L 23.058594 18.644531 C 20.648438 18.472656 17.234375 17.023438 15.113281 16.453125 C 9.53125 14.945312 3.144531 20.738281 0.84375 29.394531 C -1.457031 38.046875 1.199219 46.285156 6.78125 47.792969 C 10.945312 48.917969 15.554688 45.96875 18.585938 40.808594 C 20.257812 41.164062 22.023438 41.367188 23.863281 41.367188 C 25.726562 41.367188 27.515625 41.042969 29.210938 40.691406 C 32.277344 45.824219 36.945312 48.761719 41.160156 47.640625 C 46.8125 46.140625 49.507812 37.941406 47.175781 29.328125 Z M 40.742188 46.082031 C 36.96875 47.082031 32.703125 44.011719 30.042969 38.863281 C 29.507812 39 28.960938 39.117188 28.402344 39.222656 C 26.957031 39.484375 25.4375 39.746094 23.867188 39.746094 C 22.3125 39.746094 20.8125 39.597656 19.386719 39.332031 C 18.835938 39.230469 18.296875 39.109375 17.765625 38.972656 C 15.136719 44.144531 10.929688 47.230469 7.199219 46.226562 C 2.476562 44.949219 0.328125 37.597656 2.398438 29.8125 C 4.242188 22.871094 8.816406 17.9375 13.128906 17.84375 C 15.175781 18.046875 19.851562 20.277344 23.867188 20.277344 L 23.867188 20.261719 C 27.929688 20.261719 32.664062 18.042969 34.738281 17.835938 C 39.109375 17.929688 43.734375 22.839844 45.605469 29.746094 C 47.699219 37.496094 45.523438 44.8125 40.742188 46.082031 Z M 31.914062 31.632812 C 30.578125 31.632812 29.5 32.722656 29.5 34.066406 C 29.5 35.414062 30.578125 36.503906 31.914062 36.503906 C 33.246094 36.503906 34.328125 35.414062 34.328125 34.066406 C 34.328125 32.726562 33.246094 31.632812 31.914062 31.632812 Z M 31.914062 34.878906 C 31.46875 34.878906 31.109375 34.515625 31.109375 34.066406 C 31.109375 33.621094 31.46875 33.257812 31.914062 33.257812 C 32.355469 33.257812 32.71875 33.621094 32.71875 34.066406 C 32.71875 34.515625 32.355469 34.878906 31.914062 34.878906 Z M 39.15625 33.257812 C 37.824219 33.257812 36.742188 34.347656 36.742188 35.691406 C 36.742188 37.035156 37.824219 38.121094 39.15625 38.121094 C 40.488281 38.121094 41.570312 37.035156 41.570312 35.691406 C 41.570312 34.347656 40.488281 33.257812 39.15625 33.257812 Z M 39.15625 36.503906 C 38.710938 36.503906 38.351562 36.140625 38.351562 35.691406 C 38.351562 35.242188 38.710938 34.878906 39.15625 34.878906 C 39.601562 34.878906 39.960938 35.242188 39.960938 35.691406 C 39.960938 36.140625 39.601562 36.503906 39.15625 36.503906 Z M 15.816406 29.203125 L 12.597656 29.203125 L 12.597656 25.957031 C 12.597656 25.511719 12.238281 25.144531 11.792969 25.144531 C 11.347656 25.144531 10.988281 25.511719 10.988281 25.957031 L 10.988281 29.203125 L 7.769531 29.203125 C 7.324219 29.203125 6.964844 29.5625 6.964844 30.011719 C 6.964844 30.460938 7.324219 30.824219 7.769531 30.824219 L 10.988281 30.824219 L 10.988281 34.066406 C 10.988281 34.515625 11.347656 34.878906 11.792969 34.878906 C 12.238281 34.878906 12.597656 34.515625 12.597656 34.066406 L 12.597656 30.824219 L 15.816406 30.824219 C 16.261719 30.824219 16.621094 30.460938 16.621094 30.011719 C 16.621094 29.5625 16.261719 29.203125 15.816406 29.203125 Z M 39.15625 25.957031 C 37.824219 25.957031 36.742188 27.046875 36.742188 28.390625 C 36.742188 29.734375 37.824219 30.824219 39.15625 30.824219 C 40.488281 30.824219 41.570312 29.734375 41.570312 28.390625 C 41.570312 27.046875 40.488281 25.957031 39.15625 25.957031 Z M 39.15625 29.203125 C 38.710938 29.203125 38.351562 28.835938 38.351562 28.390625 C 38.351562 27.941406 38.710938 27.578125 39.15625 27.578125 C 39.601562 27.578125 39.960938 27.941406 39.960938 28.390625 C 39.960938 28.835938 39.601562 29.203125 39.15625 29.203125 Z M 31.914062 24.332031 C 30.578125 24.332031 29.5 25.425781 29.5 26.769531 C 29.5 28.113281 30.578125 29.203125 31.914062 29.203125 C 33.246094 29.203125 34.328125 28.113281 34.328125 26.769531 C 34.328125 25.425781 33.246094 24.332031 31.914062 24.332031 Z M 31.914062 27.578125 C 31.46875 27.578125 31.109375 27.21875 31.109375 26.769531 C 31.109375 26.320312 31.46875 25.957031 31.914062 25.957031 C 32.355469 25.957031 32.71875 26.320312 32.71875 26.769531 C 32.71875 27.214844 32.355469 27.578125 31.914062 27.578125 Z M 31.914062 27.578125 "/></g></svg>