<?xml version="1.0" encoding="UTF-8"?>
<svg xmlns="http://www.w3.org/2000/svg" width="48" height="48" viewBox="0 0 48 48" version="1.1"><g id="surface1"><path d="M 24.050781 48.011719 L 23.777344 47.96875 C 12.285156 45.257812 4.265625 35.117188 4.265625 23.3125 L 4.265625 6.824219 L 5.066406 6.789062 C 11.738281 6.492188 18.117188 4.265625 23.515625 0.355469 L 24.007812 0 L 24.5 0.355469 C 29.898438 4.265625 36.277344 6.492188 42.949219 6.789062 L 43.75 6.824219 L 43.75 23.3125 C 43.75 35.121094 35.726562 45.257812 24.238281 47.96875 Z M 5.941406 8.417969 L 5.941406 23.3125 C 5.941406 34.285156 13.359375 43.714844 24.003906 46.300781 C 34.652344 43.714844 42.074219 34.285156 42.074219 23.3125 L 42.074219 8.417969 C 35.566406 7.980469 29.347656 5.796875 24.007812 2.0625 C 18.667969 5.796875 12.449219 7.980469 5.941406 8.417969 Z M 5.941406 8.417969"/><path d="M 24.035156 41.609375 L 23.84375 41.578125 C 15.433594 39.59375 9.558594 32.167969 9.558594 23.523438 L 9.558594 11.464844 L 10.09375 11.4375 C 15.007812 11.21875 19.707031 9.582031 23.679688 6.703125 L 24.007812 6.464844 L 24.335938 6.703125 C 28.308594 9.582031 33.007812 11.21875 37.917969 11.4375 L 38.453125 11.464844 L 38.453125 23.523438 C 38.453125 32.167969 32.578125 39.59375 24.164062 41.578125 Z M 10.675781 12.527344 L 10.675781 23.523438 C 10.675781 31.613281 16.152344 38.566406 24.003906 40.46875 C 31.863281 38.5625 37.335938 31.613281 37.335938 23.523438 L 37.335938 12.527344 C 32.53125 12.214844 27.941406 10.601562 24.007812 7.839844 C 20.074219 10.601562 15.480469 12.214844 10.675781 12.527344 Z M 10.675781 12.527344"/><path d="M 27.742188 22.398438 L 27.742188 20.316406 C 27.742188 18.296875 26.109375 16.652344 24.105469 16.652344 L 23.90625 16.652344 C 21.902344 16.652344 20.273438 18.296875 20.273438 20.316406 L 20.273438 22.398438 L 18.941406 22.398438 L 18.941406 31.546875 L 29.066406 31.546875 L 29.066406 22.398438 Z M 21.675781 20.316406 C 21.675781 19.078125 22.675781 18.070312 23.90625 18.070312 L 24.105469 18.070312 C 25.339844 18.070312 26.335938 19.078125 26.335938 20.316406 L 26.335938 22.394531 L 21.675781 22.394531 Z M 21.675781 20.316406"/></g></svg>